<svg xmlns="http://www.w3.org/2000/svg" width="60" height="60" viewBox="0 0 60 60">
  <g id="Group_29975" data-name="Group 29975" transform="translate(9867 9063)">
    <g id="Group_29974" data-name="Group 29974" transform="translate(-10631 -9257)">
      <g id="Group_28653" data-name="Group 28653" transform="translate(0 -2)">
        <rect id="Rectangle_4" data-name="Rectangle 4" width="60" height="60" transform="translate(764 196)" fill="none"/>
        <g id="Group_24548" data-name="Group 24548" transform="translate(6.822 4.074)">
          <g id="game-controller" transform="translate(765.179 216.48)">
            <path id="Path_27" data-name="Path 27" d="M101.205,0h-3.7a1.275,1.275,0,0,0-1.275,1.275v4.16h6.249V1.275A1.275,1.275,0,0,0,101.205,0Zm0,0" transform="translate(-88.143 0)" fill="#ffe07d"/>
            <path id="Path_28" data-name="Path 28" d="M100.1,0H97.5a1.275,1.275,0,0,0-1.275,1.275v4.16h2.6V1.275A1.275,1.275,0,0,1,100.1,0Zm0,0" transform="translate(-88.14 0)" fill="#ffd064"/>
            <path id="Path_29" data-name="Path 29" d="M342.681,0h3.7a1.275,1.275,0,0,1,1.275,1.275v4.16h-6.25V1.275A1.275,1.275,0,0,1,342.681,0Zm0,0" transform="translate(-312.714 0)" fill="#ffe07d"/>
            <path id="Path_30" data-name="Path 30" d="M345.278,0h-2.6a1.275,1.275,0,0,0-1.275,1.275v4.16H344V1.275A1.276,1.276,0,0,1,345.278,0Zm0,0" transform="translate(-312.714 0)" fill="#ffd064"/>
            <path id="Path_31" data-name="Path 31" d="M36.972,40.227a2.478,2.478,0,0,0-2.031-1.059h-6.25a2.478,2.478,0,0,0-1.752.726l-.92.919a3.407,3.407,0,0,1-2.41,1H19.418a3.409,3.409,0,0,1-2.411-1l-.919-.919a2.478,2.478,0,0,0-1.752-.726H8.086a2.478,2.478,0,0,0-2.031,1.059A33.913,33.913,0,0,0,0,59.024,15.3,15.3,0,0,0,1.781,66.89a5.408,5.408,0,0,0,8.606.948c2.766-2.935,4.228-7.581,6.679-7.581h8.895c2.451,0,3.913,4.645,6.679,7.581a5.408,5.408,0,0,0,8.607-.948,15.3,15.3,0,0,0,1.782-7.866,33.913,33.913,0,0,0-6.055-18.8Zm0,0" transform="translate(0.001 -35.876)" fill="#0cb4fe"/>
            <path id="Path_32" data-name="Path 32" d="M4.379,66.89A15.3,15.3,0,0,1,2.6,59.024a33.916,33.916,0,0,1,6.055-18.8,2.479,2.479,0,0,1,2.032-1.059h-2.6a2.478,2.478,0,0,0-2.031,1.059A33.913,33.913,0,0,0,0,59.024,15.3,15.3,0,0,0,1.782,66.89a5.389,5.389,0,0,0,5.953,2.5,5.337,5.337,0,0,1-3.356-2.5Zm0,0" transform="translate(0 -35.876)" fill="#08a7ee"/>
            <g id="Group_24548-2" data-name="Group 24548" transform="translate(4.832 10.137)">
              <path id="Path_36" data-name="Path 36" d="M65.312,123.187h-1a.782.782,0,0,1-.782-.782v-1a.782.782,0,0,0-.782-.782h-1.9a.782.782,0,0,0-.782.782v1a.782.782,0,0,1-.782.782h-1a.782.782,0,0,0-.782.782v1.9a.782.782,0,0,0,.782.781h1a.782.782,0,0,1,.782.782v1a.782.782,0,0,0,.782.782h1.9a.782.782,0,0,0,.782-.782v-1a.782.782,0,0,1,.782-.782h1a.782.782,0,0,0,.782-.781v-1.9A.782.782,0,0,0,65.312,123.187Zm0,0" transform="translate(-57.5 -120.622)" fill="#fff3bf"/>
            </g>
            <path id="Path_37" data-name="Path 37" d="M388.17,111.831a1.511,1.511,0,1,1-1.51-1.51A1.51,1.51,0,0,1,388.17,111.831Zm0,0" transform="translate(-352.781 -101.049)" fill="#ddf1fb"/>
            <path id="Path_38" data-name="Path 38" d="M388.17,203.784a1.511,1.511,0,1,1-1.51-1.511A1.51,1.51,0,0,1,388.17,203.784Zm0,0" transform="translate(-352.781 -185.274)" fill="#ddf1fb"/>
            <path id="Path_39" data-name="Path 39" d="M429,157.808a1.511,1.511,0,1,1-1.511-1.51A1.511,1.511,0,0,1,429,157.808Zm0,0" transform="translate(-390.178 -143.162)" fill="#ddf1fb"/>
            <path id="Path_40" data-name="Path 40" d="M347.345,157.808a1.51,1.51,0,1,1-1.51-1.51A1.511,1.511,0,0,1,347.345,157.808Zm0,0" transform="translate(-315.388 -143.162)" fill="#ddf1fb"/>
            <path id="Path_41" data-name="Path 41" d="M213.887,110.129a4.254,4.254,0,1,1-4.254-4.254A4.254,4.254,0,0,1,213.887,110.129Zm0,0" transform="translate(-188.119 -96.977)" fill="#009fef"/>
            <path id="Path_42" data-name="Path 42" d="M240.821,139.787a1.533,1.533,0,1,1-1.533-1.533A1.534,1.534,0,0,1,240.821,139.787Zm0,0" transform="translate(-217.773 -126.635)" fill="#ddf1fb"/>
          </g>
        </g>
      </g>
    </g>
  </g>
</svg>
