<svg xmlns="http://www.w3.org/2000/svg" width="60" height="60" viewBox="0 0 60 60">
  <g id="Group_29952" data-name="Group 29952" transform="translate(10809 9050)">
    <g id="Group_29946" data-name="Group 29946" transform="translate(-11412 -9680)">
      <g id="Group_29942" data-name="Group 29942" transform="translate(211 302)">
        <rect id="Rectangle_5" data-name="Rectangle 5" width="60" height="60" transform="translate(392 328)" fill="none"/>
        <g id="Group_24550" data-name="Group 24550" transform="translate(-3846.191 898.06)">
          <path id="Path_8547" data-name="Path 8547" d="M205.589,100.993a34.089,34.089,0,0,0-48.287,0,3.8,3.8,0,1,0,5.368,5.368,26.5,26.5,0,0,1,37.552,0,3.8,3.8,0,0,0,5.368-5.368Z" transform="translate(4087 -640)" fill="#40c0f9"/>
          <path id="Path_8548" data-name="Path 8548" d="M280.144,106.362a3.8,3.8,0,0,1-5.369,0A26.46,26.46,0,0,0,256,98.563V90.97a34.038,34.038,0,0,1,24.144,10.023A3.8,3.8,0,0,1,280.144,106.362Z" transform="translate(4012.445 -640)" fill="#0cb4fe"/>
          <path id="Path_8549" data-name="Path 8549" d="M244.415,211.021a3.8,3.8,0,1,0,4.17,3.778A3.8,3.8,0,0,0,244.415,211.021Z" transform="translate(4023.656 -729.662)" fill="#40c0f9"/>
          <path id="Path_8550" data-name="Path 8550" d="M259.8,214.8a3.8,3.8,0,0,1-3.8,3.793V211A3.8,3.8,0,0,1,259.8,214.8Z" transform="translate(4012.445 -729.659)" fill="#0cb4fe"/>
          <path id="Path_8551" data-name="Path 8551" d="M199.682,156.543a3.8,3.8,0,0,0,5.365,5.37,11.385,11.385,0,0,1,16.107,0,3.8,3.8,0,0,0,5.365-5.37A18.972,18.972,0,0,0,199.682,156.543Z" transform="translate(4055.344 -684.828)" fill="#40c0f9"/>
          <path id="Path_8552" data-name="Path 8552" d="M269.421,161.908a3.793,3.793,0,0,1-5.367,0A11.358,11.358,0,0,0,256,158.573V150.98a18.931,18.931,0,0,1,13.418,5.562A3.794,3.794,0,0,1,269.421,161.908Z" transform="translate(4012.445 -684.826)" fill="#0cb4fe"/>
        </g>
      </g>
    </g>
  </g>
</svg>
