<svg xmlns="http://www.w3.org/2000/svg" width="60" height="60" viewBox="0 0 60 60">
  <g id="Group_29941" data-name="Group 29941" transform="translate(-418 -627)">
    <g id="Group_29940" data-name="Group 29940" transform="translate(245 240)">
      <g id="Group_28649" data-name="Group 28649" transform="translate(7 66)">
        <g id="Group_24554" data-name="Group 24554" transform="translate(-124 -1)">
          <rect id="Rectangle_6" data-name="Rectangle 6" width="60" height="60" transform="translate(290 322)" fill="#fff"/>
          <g id="smartphone-call" transform="translate(299.666 335.249)">
            <path id="Path_8547" data-name="Path 8547" d="M30.821,0h-20.4a3.1,3.1,0,0,0-3.09,3.09V42.66a3.1,3.1,0,0,0,3.09,3.091h20.4a3.1,3.1,0,0,0,3.09-3.09V3.09A3.1,3.1,0,0,0,30.821,0ZM17.36,2.227h6.525a.375.375,0,0,1,0,.749H17.36a.375.375,0,0,1,0-.749Zm3.263,41.979a1.546,1.546,0,1,1,1.545-1.546A1.545,1.545,0,0,1,20.623,44.206Zm11.138-4.174H9.484V4.9H31.761Z" transform="translate(0)" fill="#0cb4fe"/>
          </g>
        </g>
      </g>
      <circle id="Ellipse_20" data-name="Ellipse 20" cx="11" cy="11" r="11" transform="translate(203 411)" fill="#ffd064"/>
      <text id="Rp" transform="translate(207 426)" fill="#fff" font-size="11" font-family="NunitoSans-Bold, Nunito Sans" font-weight="700"><tspan x="0" y="0">Rp</tspan></text>
    </g>
  </g>
</svg>
