<svg xmlns="http://www.w3.org/2000/svg" width="60" height="60" viewBox="0 0 60 60">
  <g id="Group_29947" data-name="Group 29947" transform="translate(-854 -196)">
    <g id="Group_24546" data-name="Group 24546" transform="translate(-69 77)">
      <rect id="Rectangle_2" data-name="Rectangle 2" width="60" height="60" transform="translate(923 119)" fill="none"/>
      <g id="Group_24544" data-name="Group 24544" transform="translate(-1925 -43.384)">
        <g id="electricity" transform="translate(2855 181)">
          <path id="Path_12" data-name="Path 12" d="M227.782,448.127a2.728,2.728,0,0,1-2.728-2.728v-.957h5.457v.957A2.728,2.728,0,0,1,227.782,448.127Z" transform="translate(-205.211 -407.527)" fill="#009ee4"/>
          <path id="Path_13" data-name="Path 13" d="M217.557,364.273h-5.47a1.246,1.246,0,0,1-1.246-1.246v-7.078H218.8v7.078a1.246,1.246,0,0,1-1.246,1.246Z" transform="translate(-192.251 -326.836)" fill="#40c0f9"/>
          <path id="Path_14" data-name="Path 14" d="M215.17,355.948v3.406a3.1,3.1,0,0,1-3.1,3.1H210.84v.57a1.246,1.246,0,0,0,1.246,1.246h5.47a1.246,1.246,0,0,0,1.246-1.246v-7.078H215.17Z" transform="translate(-192.251 -326.836)" fill="#0cb4fe"/>
          <path id="Path_15" data-name="Path 15" d="M209.895,386.331h-8.363a.681.681,0,0,1,0-1.362h8.363a.681.681,0,1,1,0,1.362Z" transform="translate(-183.142 -353.298)" fill="#ddf1fb"/>
          <path id="Path_16" data-name="Path 16" d="M209.895,412.775h-8.363a.681.681,0,0,1,0-1.362h8.363a.681.681,0,1,1,0,1.362Z" transform="translate(-183.142 -377.41)" fill="#ddf1fb"/>
          <path id="Path_17" data-name="Path 17" d="M138.379,38.349a12.591,12.591,0,0,0-25.182,0,13.537,13.537,0,0,0,3.971,9.365,11.762,11.762,0,0,1,3.09,6.672,1.564,1.564,0,0,0,1.548,1.393h7.963a1.564,1.564,0,0,0,1.548-1.393,11.762,11.762,0,0,1,3.09-6.672A13.536,13.536,0,0,0,138.379,38.349Z" transform="translate(-103.217 -25.758)" fill="#ffe07d"/>
          <path id="Path_18" data-name="Path 18" d="M201.951,32.145a12.574,12.574,0,0,1,5.223,10.211,13.537,13.537,0,0,1-3.971,9.365,11.7,11.7,0,0,0-2.442,3.962,6.318,6.318,0,0,1-5.941,4.1h-2.191q.033.211.058.424a1.564,1.564,0,0,0,1.548,1.393H202.2a1.564,1.564,0,0,0,1.548-1.393,11.762,11.762,0,0,1,3.09-6.672,13.537,13.537,0,0,0,3.971-9.365A12.6,12.6,0,0,0,201.951,32.145Z" transform="translate(-175.645 -31.582)" fill="#ffd064"/>
          <path id="Path_19" data-name="Path 19" d="M208.065,115.751l-1.994,5.585a.4.4,0,0,0,.375.532h1.271a.4.4,0,0,0,.336-.184l5.4-8.482a.581.581,0,0,0-.49-.893h-2.04a.581.581,0,0,1-.547-.776l1.7-4.76a.581.581,0,0,0-.547-.776h-3.492a.581.581,0,0,0-.547.386l-3,8.4a.581.581,0,0,0,.547.777h2.89a.147.147,0,0,1,.139.2Z" transform="translate(-186.428 -98.921)" fill="#fff3bf"/>
          <g id="Group_24543" data-name="Group 24543" transform="translate(0 0.363)">
            <path id="Path_20" data-name="Path 20" d="M429.326,153.865a1.363,1.363,0,0,1,1.362-1.362h4.564a1.362,1.362,0,1,1,0,2.725h-4.564A1.362,1.362,0,0,1,429.326,153.865Z" transform="translate(-391.473 -141.691)" fill="#ffc250"/>
            <path id="Path_21" data-name="Path 21" d="M410.614,33.526a1.362,1.362,0,0,1,.681-1.181l3.953-2.282a1.362,1.362,0,1,1,1.362,2.36L412.658,34.7a1.363,1.363,0,0,1-2.044-1.179Z" transform="translate(-374.411 -29.88)" fill="#ffc250"/>
            <path id="Path_22" data-name="Path 22" d="M410.614,250.6a1.363,1.363,0,0,1,2.044-1.179l3.953,2.282a1.362,1.362,0,0,1-1.362,2.36L411.3,251.78A1.362,1.362,0,0,1,410.614,250.6Z" transform="translate(-374.411 -229.897)" fill="#ffc250"/>
            <path id="Path_23" data-name="Path 23" d="M7.289,153.865A1.363,1.363,0,0,0,5.927,152.5H1.362a1.362,1.362,0,0,0,0,2.725H5.927a1.362,1.362,0,0,0,1.362-1.362Z" transform="translate(0 -141.691)" fill="#ffc250"/>
            <path id="Path_24" data-name="Path 24" d="M32.321,33.525a1.362,1.362,0,0,0-.681-1.181l-3.953-2.282a1.362,1.362,0,0,0-1.362,2.36L30.277,34.7a1.363,1.363,0,0,0,2.044-1.179Z" transform="translate(-23.382 -29.879)" fill="#ffc250"/>
            <path id="Path_25" data-name="Path 25" d="M32.32,250.6a1.363,1.363,0,0,0-2.044-1.179L26.323,251.7a1.362,1.362,0,0,0,1.362,2.36l3.953-2.282A1.362,1.362,0,0,0,32.32,250.6Z" transform="translate(-23.381 -229.897)" fill="#ffc250"/>
          </g>
          <path id="Path_26" data-name="Path 26" d="M137.757,55.995a.682.682,0,0,1-.647-.895,10.986,10.986,0,0,1,7.554-7.175.681.681,0,1,1,.359,1.314,9.627,9.627,0,0,0-6.62,6.288A.681.681,0,0,1,137.757,55.995Z" transform="translate(-124.989 -45.948)" fill="#fff3bf"/>
        </g>
      </g>
    </g>
  </g>
</svg>
